HIERARCHY
ROOT Hips
{
	OFFSET 0.000000 0.000000 0.000000
	CHANNELS 6 Xposition Yposition Zposition Xrotation Yrotation Zrotation
	JOINT LeftUpLeg_virtual
	{
		OFFSET 0.000000 0.000000 0.000000
		CHANNELS 3 Xrotation Yrotation Zrotation
		JOINT LeftUpLeg
		{
			OFFSET 15.427100 -6.655098 0.678600
			CHANNELS 3 Xrotation Yrotation Zrotation
			JOINT LeftLeg
			{
				OFFSET 4.081073 -39.591068 13.024000
				CHANNELS 3 Xrotation Yrotation Zrotation
				JOINT LeftFoot
				{
					OFFSET -4.081074 -37.707932 -15.979700
					CHANNELS 3 Xrotation Yrotation Zrotation
					JOINT LeftToeBase
					{
						OFFSET 5.346399 -15.068900 20.645000
						CHANNELS 3 Xrotation Yrotation Zrotation
						JOINT LeftToe_End
						{
							OFFSET 2.754700 0.931300 11.300900
							CHANNELS 3 Xrotation Yrotation Zrotation
							End Site
							{
								OFFSET 0 0 0
							}
						}
					}
				}
			}
		}
	}
	JOINT RightUpLeg_virtual
	{
		OFFSET 0.000000 0.000000 0.000000
		CHANNELS 3 Xrotation Yrotation Zrotation
		JOINT RightUpLeg
		{
			OFFSET -15.569500 -6.655098 0.678600
			CHANNELS 3 Xrotation Yrotation Zrotation
			JOINT RightLeg
			{
				OFFSET -4.081825 -39.591045 13.023800
				CHANNELS 3 Xrotation Yrotation Zrotation
				JOINT RightFoot
				{
					OFFSET 4.081824 -37.707954 -15.979600
					CHANNELS 3 Xrotation Yrotation Zrotation
					JOINT RightToeBase
					{
						OFFSET -5.346400 -15.068900 20.645000
						CHANNELS 3 Xrotation Yrotation Zrotation
						JOINT RightToe_End
						{
							OFFSET -2.754700 0.931300 11.300900
							CHANNELS 3 Xrotation Yrotation Zrotation
							End Site
							{
								OFFSET 0 0 0
							}
						}
					}
				}
			}
		}
	}
	JOINT Spine_virtual
	{
		OFFSET 0.000000 0.000000 0.000000
		CHANNELS 3 Xrotation Yrotation Zrotation
		JOINT Spine
		{
			OFFSET -0.279200 12.230698 -2.892100
			CHANNELS 3 Xrotation Yrotation Zrotation
			JOINT Spine1
			{
				OFFSET -0.232667 10.192268 -1.242267
				CHANNELS 3 Xrotation Yrotation Zrotation
				JOINT Spine1_split
				{
					OFFSET -0.232667 10.192268 -1.242267
					CHANNELS 3 Xrotation Yrotation Zrotation
					JOINT Spine2
					{
						OFFSET -0.232667 10.192268 -1.242267
						CHANNELS 3 Xrotation Yrotation Zrotation
						JOINT Neck_virtual
						{
							OFFSET 0.000000 0.000000 0.000000
							CHANNELS 3 Xrotation Yrotation Zrotation
							JOINT Neck
							{
								OFFSET -0.418800 17.814194 8.416900
								CHANNELS 3 Xrotation Yrotation Zrotation
								JOINT Head
								{
									OFFSET 0.000000 7.031097 3.806800
									CHANNELS 3 Xrotation Yrotation Zrotation
									JOINT HeadTop_End
									{
										OFFSET 0.000000 24.646606 12.978600
										CHANNELS 3 Xrotation Yrotation Zrotation
										End Site
										{
											OFFSET 0 0 0
										}
									}
								}
							}
						}
						JOINT LeftShoulder_virtual
						{
							OFFSET 0.000000 0.000000 0.000000
							CHANNELS 3 Xrotation Yrotation Zrotation
							JOINT LeftShoulder
							{
								OFFSET 8.476499 7.247704 -3.868750
								CHANNELS 3 Xrotation Yrotation Zrotation
								JOINT LeftShoulder_split
								{
									OFFSET 8.476499 7.247704 -3.868750
									CHANNELS 3 Xrotation Yrotation Zrotation
									JOINT LeftArm
									{
										OFFSET 9.308998 -2.777710 0.208600
										CHANNELS 3 Xrotation Yrotation Zrotation
										JOINT LeftForeArm
										{
											OFFSET 29.972298 0.000000 0.000000
											CHANNELS 3 Xrotation Yrotation Zrotation
											JOINT LeftHand
											{
												OFFSET 26.026505 0.000000 0.000000
												CHANNELS 3 Xrotation Yrotation Zrotation
												End Site
												{
													OFFSET 0 0 0
												}
											}
										}
									}
								}
							}
						}
						JOINT RightShoulder_virtual
						{
							OFFSET 0.000000 0.000000 0.000000
							CHANNELS 3 Xrotation Yrotation Zrotation
							JOINT RightShoulder
							{
								OFFSET -7.570500 7.247704 -3.868750
								CHANNELS 3 Xrotation Yrotation Zrotation
								JOINT RightShoulder_split
								{
									OFFSET -7.570500 7.247704 -3.868750
									CHANNELS 3 Xrotation Yrotation Zrotation
									JOINT RightArm
									{
										OFFSET -9.308998 -2.777710 0.208500
										CHANNELS 3 Xrotation Yrotation Zrotation
										JOINT RightForeArm
										{
											OFFSET -29.972300 0.000000 0.000000
											CHANNELS 3 Xrotation Yrotation Zrotation
											JOINT RightHand
											{
												OFFSET -26.026505 0.000000 0.000000
												CHANNELS 3 Xrotation Yrotation Zrotation
												End Site
												{
													OFFSET 0 0 0
												}
											}
										}
									}
								}
							}
						}
					}
				}
			}
		}
	}
}
MOTION
Frames: 8
Frame Time: 0.03333333
-1.790657 71.879608 2.358166 0.000000 0.000000 0.000000 4.949874 58.318655 -9.077177 -4.589931 7.028689 29.652023 48.278994 -9.291614 9.899189 -26.948170 7.609704 -22.131725 -6.802607 0.593728 -3.748926 0.000000 0.000000 0.000000 7.669053 58.633568 -10.970085 -38.039772 16.083687 -29.514784 32.507035 8.955792 -0.247452 -0.434726 6.960098 15.977870 -6.961704 -0.048687 1.939574 0.000000 0.000000 0.000000 7.353460 60.974089 -8.314890 0.760742 -2.902108 -1.859379 2.811157 -0.649119 -0.283737 1.231922 -1.007595 0.221920 0.000000 0.000000 0.000000 1.757809 -1.143638 0.031369 -5.911032 -10.789226 -1.308156 -1.157651 -41.837415 6.711052 0.000000 0.000000 0.000000 1.581607 -1.144683 -0.288840 0.356458 -8.446515 -9.703622 -3.524253 0.156832 -2.307285 1.897700 -46.049327 -47.064604 173.657778 -73.648659 172.479215 0.000000 0.000000 0.000000 2.307012 -0.898899 -0.190297 -0.112981 -2.038544 9.372934 -3.634895 6.917896 -0.984760 -24.292316 -8.404046 46.363013 -178.726530 66.148224 178.062362 0.000000 0.000000 0.000000 
-1.892672 75.408463 1.753407 0.000000 0.000000 0.000000 4.869419 56.632367 -9.225221 -4.320020 5.193660 29.472007 45.707629 -6.581484 8.572420 -22.871986 8.070242 -18.076342 -5.789798 0.538089 -4.571366 0.000000 0.000000 0.000000 7.920038 55.906017 -10.720836 -37.192313 12.949340 -29.147412 28.069084 10.026016 -0.033941 1.662435 9.198165 19.584357 -9.109522 0.558880 1.241527 0.000000 0.000000 0.000000 7.767073 58.045147 -8.589484 0.091386 -3.024366 -1.297358 2.535853 -0.667698 -0.194615 1.229279 -1.044959 0.154936 0.000000 0.000000 0.000000 2.144571 -1.039589 0.011941 -5.592447 -10.571184 -0.999779 -0.912095 -41.811963 6.687890 0.000000 0.000000 0.000000 1.662315 -1.154595 -0.157046 0.375506 -8.785161 -8.714149 -4.103820 -0.805902 -1.033651 -1.505310 -46.313754 -47.337603 175.195746 -72.423658 174.251390 0.000000 0.000000 0.000000 2.361085 -0.874046 -0.085149 -0.065256 -1.984256 9.053415 -3.901705 5.752078 -1.737198 -25.557081 -8.953900 45.528781 -179.327750 65.114584 178.406126 0.000000 0.000000 0.000000 
-1.681988 81.999458 0.175346 0.000000 0.000000 0.000000 4.562530 53.484582 -9.082501 -4.854818 3.062953 28.875779 41.016123 -4.655720 6.994731 -13.095720 6.662947 -16.800392 -3.073700 0.418936 -7.357525 0.000000 0.000000 0.000000 8.003375 51.200956 -10.208729 -35.087658 9.389070 -27.046772 20.293780 10.792892 0.767616 3.786303 11.322332 21.624702 -9.187742 1.112902 0.821371 0.000000 0.000000 0.000000 7.847560 53.057941 -8.456861 -0.540991 -2.871078 -0.478933 2.352018 -0.533485 -0.228738 1.314337 -0.785186 0.183853 0.000000 0.000000 0.000000 2.574312 -0.792503 -0.109624 -5.133378 -9.968868 -0.581686 -0.547533 -40.473088 6.556427 0.000000 0.000000 0.000000 1.909630 -0.966921 -0.114662 0.416752 -8.586209 -7.266609 -3.623111 -1.420292 -0.751250 -6.062462 -45.860984 -47.244651 177.120780 -70.352888 176.235164 0.000000 0.000000 0.000000 2.494615 -0.745737 -0.140852 0.024738 -1.576147 8.373419 -3.731401 4.410883 -1.544956 -27.434032 -7.762445 43.141852 -179.237865 63.940707 178.137112 0.000000 0.000000 0.000000 
-1.134518 89.659431 -2.025204 0.000000 0.000000 0.000000 3.802801 48.546638 -8.573662 -5.487466 2.110010 27.589277 36.350844 -3.016649 5.309643 -1.053602 3.845797 -16.154198 -5.196945 0.335980 -8.797961 0.000000 0.000000 0.000000 7.077489 45.330487 -9.187081 -32.540029 5.792992 -23.647394 13.517256 10.346275 1.743668 4.926080 11.532458 20.915976 -7.311158 1.436272 0.685779 0.000000 0.000000 0.000000 7.283036 46.862577 -7.719295 -0.828492 -2.495597 0.345707 2.281143 -0.282625 -0.326144 1.274188 -0.594902 0.259933 0.000000 0.000000 0.000000 2.946353 -0.450669 -0.277264 -4.637362 -9.096663 -0.146066 -0.071724 -37.878050 6.289606 0.000000 0.000000 0.000000 2.246798 -0.649422 -0.139165 0.432849 -7.884600 -5.713426 -2.699358 -1.460486 -1.178024 -10.881719 -44.373506 -47.110099 178.830144 -68.292698 177.882920 0.000000 0.000000 0.000000 2.685910 -0.512881 -0.318091 0.123437 -0.790036 7.602755 -3.240677 3.682617 -0.847308 -29.138461 -5.029181 40.144867 -178.772661 63.114049 177.654682 0.000000 0.000000 0.000000 
-0.428675 96.653244 -3.810780 0.000000 0.000000 0.000000 2.540356 42.556426 -7.474814 -5.799218 2.635190 25.066343 33.110254 -1.055962 3.979293 7.272943 1.326887 -13.565475 -11.626809 0.441736 -8.128794 0.000000 0.000000 0.000000 5.014989 38.772686 -7.718153 -30.429220 2.503144 -19.981717 11.184296 8.701507 2.456876 4.886797 9.123394 17.951634 -5.730584 1.478419 0.686297 0.000000 0.000000 0.000000 6.024203 40.637737 -6.484287 -0.656700 -1.954007 0.976702 2.357421 0.044601 -0.420038 1.111159 -0.432158 0.183459 0.000000 0.000000 0.000000 3.196827 -0.074829 -0.414033 -4.176951 -7.945317 0.188513 0.474450 -34.327715 5.906206 0.000000 0.000000 0.000000 2.617673 -0.258793 -0.201309 0.386636 -6.808029 -4.364386 -1.968948 -0.843636 -1.635630 -15.138066 -42.093363 -47.069193 -179.986058 -66.893917 178.964863 0.000000 0.000000 0.000000 2.875871 -0.188565 -0.539558 0.264625 0.293959 7.119575 -2.627964 3.724628 -0.447398 -30.175363 -1.431955 37.454435 -178.205578 62.937133 177.252643 0.000000 0.000000 0.000000 
0.449320 101.510384 -4.742104 0.000000 0.000000 0.000000 0.857100 35.734354 -5.877085 -7.444979 4.145700 22.397621 33.183518 1.186606 2.841436 9.925709 0.173646 -10.115762 -14.272272 0.662400 -8.014688 0.000000 0.000000 0.000000 2.064991 32.651473 -5.947203 -29.163555 0.130648 -17.142805 14.850276 6.823698 2.756429 3.723595 5.149460 13.957561 -5.393897 1.323103 0.646516 0.000000 0.000000 0.000000 4.044006 35.217760 -4.928309 -0.079371 -1.327486 1.321951 2.542833 0.423824 -0.458592 0.995708 -0.360943 -0.007741 0.000000 0.000000 0.000000 3.292140 0.265332 -0.480796 -3.827693 -6.557563 0.348281 1.041726 -30.231572 5.451659 0.000000 0.000000 0.000000 2.958798 0.132934 -0.276901 0.306545 -5.650559 -3.505799 -1.751492 -0.097287 -2.084721 -17.670063 -39.280322 -47.157976 -179.368718 -66.393728 179.528066 0.000000 0.000000 0.000000 3.042732 0.179633 -0.715777 0.444308 1.498422 7.214933 -2.079247 4.038590 -0.387138 -30.266911 2.105723 35.773430 -177.845067 63.569773 177.206676 0.000000 0.000000 0.000000 
1.327930 104.098511 -5.657372 0.000000 0.000000 0.000000 -0.732126 28.070602 -4.039808 -11.608286 5.364881 20.631864 36.028978 2.878702 2.017297 9.369310 -0.200500 -8.294229 -10.231930 0.831632 -8.649028 0.000000 0.000000 0.000000 -0.559232 27.707653 -4.123982 -28.407766 -1.026571 -15.968711 22.806761 5.507544 2.881477 1.758886 1.296067 10.498264 -4.686148 1.125940 0.618926 0.000000 0.000000 0.000000 1.880737 29.862803 -3.423872 0.674771 -0.690478 1.332269 2.775223 0.799490 -0.446722 0.980737 -0.198633 0.028323 0.000000 0.000000 0.000000 3.255746 0.561728 -0.470779 -3.425813 -5.052353 0.306517 1.539363 -25.965934 4.979700 0.000000 0.000000 0.000000 3.227723 0.487785 -0.356592 0.248241 -4.473491 -3.269421 -1.996816 0.582385 -2.339144 -18.263330 -36.438130 -47.659977 -179.217976 -66.940273 179.706580 0.000000 0.000000 0.000000 3.199343 0.562725 -0.824619 0.622986 2.539485 7.992786 -1.678501 4.482220 -0.805245 -29.705193 4.803436 35.382651 -177.898151 64.909036 177.586476 0.000000 0.000000 0.000000 
2.079818 104.741013 -6.610714 0.000000 0.000000 0.000000 -1.488649 21.109495 -2.321693 -17.064608 4.427539 19.630351 38.714147 2.639499 2.036362 9.142966 -0.856028 -10.151120 -3.603486 0.838983 -8.374237 0.000000 0.000000 0.000000 -1.817007 23.645823 -2.556226 -27.441794 -1.054993 -16.739382 31.068461 5.211969 2.707544 -0.070849 -1.199491 8.583386 -3.137095 1.039160 0.626744 0.000000 0.000000 0.000000 0.192545 24.774985 -2.314717 1.261064 -0.061194 1.080670 2.969561 1.138404 -0.435523 0.705972 -0.078385 0.428765 0.000000 0.000000 0.000000 3.177958 0.837728 -0.397868 -2.878806 -3.470096 0.099898 1.821926 -21.897207 4.534976 0.000000 0.000000 0.000000 3.355558 0.809760 -0.445188 0.229263 -3.391294 -3.683633 -2.519187 0.722436 -2.183108 -16.661169 -34.072556 -48.374135 -179.574580 -68.164742 179.437430 0.000000 0.000000 0.000000 3.297585 0.942044 -0.851000 0.789048 3.301805 9.279113 -1.420631 4.754962 -1.439781 -28.916651 6.501529 36.225223 -178.282950 66.496236 178.201329 0.000000 0.000000 0.000000 
